<?xml version="1.0" encoding="UTF-8" standalone="no"?>
<!-- Created with Inkscape (http://www.inkscape.org/) -->

<svg
   width="83.438431mm"
   height="83.479614mm"
   viewBox="0 0 83.438431 83.479614"
   version="1.1"
   id="svg1"
   sodipodi:docname="logo_optimized.svg"
   inkscape:version="1.4 (e7c3feb100, 2024-10-09)"
   xmlns:inkscape="http://www.inkscape.org/namespaces/inkscape"
   xmlns:sodipodi="http://sodipodi.sourceforge.net/DTD/sodipodi-0.dtd"
   xmlns="http://www.w3.org/2000/svg"
   xmlns:svg="http://www.w3.org/2000/svg">
  <sodipodi:namedview
     id="namedview1"
     pagecolor="#ffffff"
     bordercolor="#000000"
     borderopacity="0.25"
     inkscape:showpageshadow="2"
     inkscape:pageopacity="0.0"
     inkscape:pagecheckerboard="0"
     inkscape:deskcolor="#d1d1d1"
     inkscape:document-units="mm"
     showguides="true"
     showgrid="true"
     inkscape:zoom="1.4142136"
     inkscape:cx="142.83557"
     inkscape:cy="193.04015"
     inkscape:window-width="1918"
     inkscape:window-height="1059"
     inkscape:window-x="1920"
     inkscape:window-y="0"
     inkscape:window-maximized="1"
     inkscape:current-layer="layer2"
     inkscape:clip-to-page="false">
    <inkscape:grid
       id="grid5"
       units="mm"
       originx="-64.134703"
       originy="-61.447694"
       spacingx="0.26458333"
       spacingy="0.26458334"
       empcolor="#0099e5"
       empopacity="0.30196078"
       color="#0099e5"
       opacity="0.14901961"
       empspacing="5"
       enabled="true"
       visible="true" />
  </sodipodi:namedview>
  <defs
     id="defs1">
    <inkscape:path-effect
       effect="mirror_symmetry"
       start_point="105.83333,91.268478"
       end_point="105.83333,136.26042"
       center_point="105.83333,113.76445"
       id="path-effect10"
       is_visible="true"
       lpeversion="1.2"
       lpesatellites=""
       mode="free"
       discard_orig_path="false"
       fuse_paths="false"
       oposite_fuse="false"
       split_items="false"
       split_open="false"
       link_styles="false" />
    <inkscape:path-effect
       effect="mirror_symmetry"
       start_point="105.83333,81.756252"
       end_point="105.83333,132.29167"
       center_point="105.83333,107.02396"
       id="path-effect9"
       is_visible="true"
       lpeversion="1.2"
       lpesatellites=""
       mode="free"
       discard_orig_path="false"
       fuse_paths="false"
       oposite_fuse="false"
       split_items="false"
       split_open="false"
       link_styles="false" />
    <inkscape:path-effect
       effect="mirror_symmetry"
       start_point="105.81508,80.697921"
       end_point="105.81508,136.22378"
       center_point="105.81508,108.46085"
       id="path-effect5"
       is_visible="true"
       lpeversion="1.2"
       lpesatellites=""
       mode="free"
       discard_orig_path="false"
       fuse_paths="false"
       oposite_fuse="false"
       split_items="false"
       split_open="false"
       link_styles="false" />
    <inkscape:path-effect
       effect="bounding_box"
       linkedpath=""
       id="path-effect1"
       is_visible="true"
       lpeversion="1.3"
       visualbounds="false" />
    <inkscape:path-effect
       effect="mirror_symmetry"
       start_point="95.396075,60.091254"
       end_point="95.396075,121.62773"
       center_point="95.396075,90.859492"
       id="path-effect6"
       is_visible="true"
       lpeversion="1.2"
       lpesatellites=""
       mode="free"
       discard_orig_path="false"
       fuse_paths="false"
       oposite_fuse="false"
       split_items="false"
       split_open="false"
       link_styles="false" />
  </defs>
  <g
     inkscape:groupmode="layer"
     id="layer6"
     inkscape:label="Layer 5"
     transform="translate(-64.134703,-61.447691)">
    <ellipse
       style="fill:#ffffff;fill-opacity:1;stroke:#ffffff;stroke-width:4.10461;stroke-linecap:round;stroke-linejoin:round;stroke-dasharray:none;stroke-dashoffset:0;stroke-opacity:1"
       id="path11-8"
       cx="105.85392"
       cy="103.1875"
       rx="39.666912"
       ry="39.687504" />
  </g>
  <g
     inkscape:groupmode="layer"
     id="layer2"
     inkscape:label="Layer 2"
     transform="translate(-64.134703,-61.447691)">
    <path
       style="opacity:1;fill:none;stroke:#202547;stroke-width:4;stroke-linecap:round;stroke-linejoin:round;stroke-dasharray:none;stroke-dashoffset:0;stroke-opacity:1"
       d="m 84.666663,132.29167 v 0 c 0,0 -2.050521,-3.30729 -2.645833,-7.9375 -0.558152,-4.34119 0.751003,-5.23517 2.38125,-7.14375 0.903993,-1.05833 2.910416,-2.75381 2.910416,-8.73125 0,-6.01405 -1.903661,-7.46145 -3.040001,-8.955449 -1.13634,-1.493997 -6.699971,-7.233745 0.394169,-14.857052 6.006211,-6.454227 13.205438,-3.278088 14.287499,-2.910417 1.082057,0.367671 6.111587,1.541971 6.879167,1.432317 v 0 M 127,132.29167 v 0 c 0,0 2.05052,-3.30729 2.64583,-7.9375 0.55815,-4.34119 -0.751,-5.23517 -2.38125,-7.14375 -0.90399,-1.05833 -2.91042,-2.75381 -2.91042,-8.73125 0,-6.01405 1.90367,-7.46145 3.04001,-8.955449 1.13633,-1.493997 6.69997,-7.233745 -0.39417,-14.857052 -6.00621,-6.454227 -13.20544,-3.278088 -14.2875,-2.910417 -1.08206,0.367671 -6.11159,1.541971 -6.87917,1.432317 v 0"
       id="path9"
       inkscape:path-effect="#path-effect9"
       inkscape:original-d="m 84.666663,132.29167 v 0 c 0,0 -2.050521,-3.30729 -2.645833,-7.9375 -0.558152,-4.34119 0.751003,-5.23517 2.38125,-7.14375 0.903993,-1.05833 2.910416,-2.75381 2.910416,-8.73125 0,-6.01405 -1.903661,-7.46145 -3.040001,-8.955449 -1.13634,-1.493997 -6.699971,-7.233745 0.394169,-14.857052 6.006211,-6.454227 13.205438,-3.278088 14.287499,-2.910417 1.082057,0.367671 6.111587,1.541971 6.879167,1.432317 v 0"
       sodipodi:nodetypes="ccssszszcc"
       transform="matrix(1.0095652,0,0,0.85374932,-0.91877267,12.204011)" />
  </g>
  <g
     inkscape:groupmode="layer"
     id="layer4"
     inkscape:label="Layer 3"
     transform="translate(-64.134703,-61.447691)">
    <path
       style="opacity:1;fill:none;stroke:#44679f;stroke-width:3.16671;stroke-linecap:round;stroke-linejoin:round;stroke-dasharray:none;stroke-opacity:1"
       d="m 105.83333,95.69777 c 0,0 -5.3873,-6.2519 -10.511656,-3.111924 -3.212546,1.968506 -2.717511,5.309989 -2.717511,5.309989 v 38.364585 0 M 105.83333,95.69777 c 0,0 5.3873,-6.2519 10.51166,-3.111924 3.21254,1.968506 2.71751,5.309989 2.71751,5.309989 v 38.364585 0"
       id="path10"
       sodipodi:nodetypes="csccc"
       inkscape:path-effect="#path-effect10"
       inkscape:original-d="m 105.83333,95.69777 c 0,0 -5.3873,-6.2519 -10.511656,-3.111924 -3.212546,1.968506 -2.717511,5.309989 -2.717511,5.309989 v 38.364585 0"
       transform="matrix(0.94735679,0,0,0.94735679,5.5714074,7.2359038)" />
  </g>
  <g
     inkscape:groupmode="layer"
     id="layer3"
     inkscape:label="Layer 1"
     style="display:none"
     transform="translate(-64.134703,-61.447691)">
    <g
       id="g5"
       inkscape:path-effect="#path-effect5">
      <path
         style="opacity:0.3;fill:none;stroke:#000000;stroke-width:0.224154"
         id="path5"
         sodipodi:type="arc"
         sodipodi:cx="93.927078"
         sodipodi:cy="92.585846"
         sodipodi:rx="11.888"
         sodipodi:ry="11.887923"
         d="m 105.81508,92.585846 c 0,6.565519 -5.32244,11.887924 -11.888002,11.887924 -6.565561,0 -11.887999,-5.322405 -11.887999,-11.887924 0,-6.565519 5.322438,-11.887923 11.887999,-11.887923 6.565562,0 11.888002,5.322404 11.888002,11.887923 z m 0,0 c 0,6.565519 5.32244,11.887924 11.888,11.887924 6.56556,0 11.888,-5.322405 11.888,-11.887924 0,-6.565519 -5.32244,-11.887923 -11.888,-11.887923 -6.56556,0 -11.888,5.322404 -11.888,11.887923 z" />
      <path
         style="opacity:0.3;fill:none;stroke:#000000;stroke-width:0.224154"
         id="path5-3"
         sodipodi:type="arc"
         sodipodi:cx="93.927078"
         sodipodi:cy="124.33585"
         sodipodi:rx="11.887923"
         sodipodi:ry="11.887923"
         d="m 105.815,124.33585 c 0,6.56552 -5.3224,11.88793 -11.887922,11.88793 -6.565518,0 -11.887923,-5.32241 -11.887923,-11.88793 0,-6.56552 5.322405,-11.88792 11.887923,-11.88792 6.565522,0 11.887922,5.3224 11.887922,11.88792 z m 1.6e-4,0 c 0,6.56552 5.3224,11.88793 11.88792,11.88793 6.56552,0 11.88792,-5.32241 11.88792,-11.88793 0,-6.56552 -5.3224,-11.88792 -11.88792,-11.88792 -6.56552,0 -11.88792,5.3224 -11.88792,11.88792 z" />
      <path
         style="opacity:0.3;fill:none;stroke:#000000;stroke-width:0.285415"
         id="path5-3-5"
         sodipodi:type="arc"
         sodipodi:cx="72.175568"
         sodipodi:cy="108.47917"
         sodipodi:rx="15.136929"
         sodipodi:ry="15.136929"
         d="m 87.312496,108.47917 c 0,8.3599 -6.777034,15.13693 -15.136928,15.13693 -8.359895,0 -15.136929,-6.77703 -15.136929,-15.13693 0,-8.35989 6.777034,-15.136927 15.136929,-15.136927 8.359894,0 15.136928,6.777037 15.136928,15.136927 z m 37.005164,0 c 0,8.3599 6.77704,15.13693 15.13693,15.13693 8.3599,0 15.13693,-6.77703 15.13693,-15.13693 0,-8.35989 -6.77703,-15.136927 -15.13693,-15.136927 -8.35989,0 -15.13693,6.777037 -15.13693,15.136927 z" />
    </g>
    <ellipse
       style="opacity:0.3;fill:none;stroke:#000000;stroke-width:0.288;stroke-dasharray:none"
       id="path6"
       cx="105.83333"
       cy="67.391159"
       rx="15.797"
       ry="15.79741" />
    <circle
       style="opacity:0.3;fill:none;stroke:#000000;stroke-width:0.290918"
       id="path7"
       cx="99.284996"
       cy="97.962074"
       r="6.535377" />
    <circle
       style="opacity:0.3;fill:none;stroke:#000000;stroke-width:0.303703"
       id="path7-5"
       cx="105.81087"
       cy="86.082359"
       r="6.8225908" />
    <ellipse
       style="opacity:0.3;fill:none;stroke:#000000;stroke-width:0.290917"
       id="path8"
       cx="112.38166"
       cy="97.962082"
       rx="6.5349998"
       ry="6.5353718" />
  </g>
  <g
     inkscape:groupmode="layer"
     id="layer5"
     inkscape:label="Layer 4"
     transform="translate(-64.134703,-61.447691)">
    <circle
       style="opacity:1;fill:none;stroke:#c0d9e5;stroke-width:4;stroke-linecap:round;stroke-linejoin:round;stroke-dasharray:none;stroke-dashoffset:0;stroke-opacity:1"
       id="path11"
       cx="105.83333"
       cy="103.04444"
       r="36.898605" />
  </g>
</svg>
