<svg id="visual" viewBox="0 0 900 600" width="900" height="600" xmlns="http://www.w3.org/2000/svg" xmlns:xlink="http://www.w3.org/1999/xlink" version="1.1"><path d="M0 387L21.5 403C43 419 86 451 128.8 472.7C171.7 494.3 214.3 505.7 257.2 511.8C300 518 343 519 385.8 501.8C428.7 484.7 471.3 449.3 514.2 426.3C557 403.3 600 392.7 642.8 395.7C685.7 398.7 728.3 415.3 771.2 430C814 444.7 857 457.3 878.5 463.7L900 470L900 601L878.5 601C857 601 814 601 771.2 601C728.3 601 685.7 601 642.8 601C600 601 557 601 514.2 601C471.3 601 428.7 601 385.8 601C343 601 300 601 257.2 601C214.3 601 171.7 601 128.8 601C86 601 43 601 21.5 601L0 601Z" fill="#FFFFFF" stroke-linecap="round" stroke-linejoin="miter"></path></svg>